<?xml version="1.0" encoding="UTF-8"?>
<svg id="Layer_1" xmlns="http://www.w3.org/2000/svg" version="1.1" viewBox="0 0 15.8 15.8">
  <!-- Generator: Adobe Illustrator 30.6.0, SVG Export Plug-In . SVG Version: 2.1.4 Build 109)  -->
  <defs>
    <style>
      .st0 {
        fill: none;
        stroke: #800020;
        stroke-miterlimit: 10;
        stroke-width: .2px;
      }

      .st1 {
        fill: #800020;
      }
    </style>
  </defs>
  <g>
    <path class="st1" d="M6.7,9.2c0,.5-.2.9-.6,1.3-.4.4-.9.5-1.4.5s-.7-.1-1.2-.3c-.1,0-.2,0-.3,0s-.1,0-.1.2c0,0,0,.1-.1.1s0,0,0-.1h0c0-.5,0-.8,0-1.1s0-.2,0-.5h0c0-.2,0-.3.1-.3s0,0,.1.2c.2,1.1.7,1.6,1.5,1.6s.6-.1.8-.3.3-.5.3-.9-.1-.6-.3-.9c-.2-.2-.5-.5-1-.7-.6-.3-1-.6-1.2-.8s-.3-.6-.3-1,.2-.9.5-1.2.7-.5,1.2-.5.5,0,.8.2c.1,0,.2,0,.3,0s.1,0,.1,0,0,0,0-.2c0,0,0,0,.1,0s0,0,0,.1h0c0,.2,0,.4,0,.6s0,.5,0,.7h0c0,.2,0,.2,0,.2s-.1,0-.1-.2c0-.3-.2-.6-.5-.9-.2-.2-.5-.3-.8-.3s-.5,0-.7.3-.3.4-.3.8.1.7.4.9c.1.1.4.3.9.6s1,.6,1.2.9c.2.3.4.6.4,1h0Z"/>
    <path class="st1" d="M12.8,6.4c0,0,0,.1-.1.1s-.1,0-.1-.2c0-.1,0-.2,0-.3,0-.2-.1-.4-.2-.5-.1-.2-.3-.3-.6-.4-.2,0-.3,0-.4,0-.3,0-.4,0-.5,0v5.4c0,.2,0,.4.2.4,0,0,.2,0,.5,0s.1,0,.1,0,0,0-.1,0h-.1c-.4,0-.6,0-.8,0s-.4,0-.6,0c-.2,0-.4,0-.7,0s-.2,0-.2,0,.1,0,.4,0c.2,0,.3,0,.4-.1,0,0,0-.2,0-.4v-5.3c-.6,0-.9,0-1.1,0-.4.1-.6.5-.7,1.1,0,.2,0,.3-.1.3s-.1,0-.1-.2v-.4c0-.3,0-.6.1-1.1h2.2c.2,0,.6,0,1,0h1.5c0,.3,0,.8.1,1.4h0c0,.1,0,0,0,0Z"/>
  </g>
  <circle class="st0" cx="7.9" cy="7.9" r="7.8"/>
</svg>