<?xml version="1.0" encoding="UTF-8"?>
<svg id="Layer_1" xmlns="http://www.w3.org/2000/svg" version="1.1" viewBox="0 0 1368 267">
  <!-- Generator: Adobe Illustrator 29.1.0, SVG Export Plug-In . SVG Version: 2.1.0 Build 142)  -->
  <defs>
    <style>
      .st0 {
        fill: #fff;
      }
    </style>
  </defs>
  <path class="st0" d="M662.9,149.7c0,1.04-.06,2.76-.18,5.17h-.66c-.24,0-.82-.04-1.74-.12-.92-.08-1.96-.12-3.12-.12l-24.96-.18c-.68,0-1.02-.18-1.02-.54,0-.28.54-.46,1.62-.54,1.52-.08,2.43-.25,2.73-.51.3-.26.45-1.01.45-2.25v-33.79c0-1.48-.15-2.35-.45-2.59s-1.37-.36-3.22-.36c-.76,0-1.14-.22-1.14-.67,0-.36.24-.54.72-.54h.54c1.32.12,3.95.18,7.87.18.36,0,1.06-.03,2.1-.09,1.04-.06,1.9-.09,2.59-.09h.66c.72,0,1.08.2,1.08.6,0,.24-.11.39-.33.45-.22.06-.91.11-2.07.15-1.16.04-1.85.23-2.07.57-.22.34-.33,1.39-.33,3.16v35.47c1.08.04,2.58.06,4.51.06,4.69,0,7.99-.24,9.92-.72,1.92-.48,3.23-1.38,3.91-2.71.68-1.32,1.08-3.11,1.2-5.35.04-.52.27-.78.69-.78.5,0,.73.3.69.9v5.23Z"/>
  <path class="st0" d="M696.2,142.73c0,3.44-1.32,6.38-3.94,8.81-2.63,2.43-5.78,3.64-9.47,3.64-2.16,0-4.75-.66-7.76-1.98-.8-.36-1.4-.54-1.8-.54-.48,0-.78.56-.9,1.67-.04.57-.3.86-.78.86-.4,0-.6-.24-.6-.72,0-.32.02-.56.06-.72.32-2.45.48-4.71.48-6.8,0-.4-.04-1.52-.12-3.37-.04-.24-.06-.56-.06-.96,0-.6.24-.9.72-.9.4,0,.68.48.84,1.46,1.04,7.2,4.43,10.81,10.16,10.81,2.44,0,4.33-.69,5.68-2.07,1.34-1.38,2.02-3.34,2.02-5.86,0-2.25-.66-4.16-1.96-5.74-1.3-1.58-3.53-3.16-6.7-4.72-3.81-1.88-6.45-3.71-7.94-5.47-1.48-1.76-2.23-3.94-2.23-6.55,0-3.33,1.07-6.07,3.22-8.23,2.15-2.17,4.86-3.25,8.15-3.25,1.36,0,3.24.46,5.65,1.38.84.32,1.46.48,1.86.48.44,0,.73-.08.87-.24s.27-.58.39-1.26c.08-.4.3-.6.66-.6.4,0,.6.24.6.72,0,.32-.02.56-.06.72-.12.96-.18,2.12-.18,3.48,0,1.93.1,3.45.3,4.57l.06.96c.04.44-.14.66-.54.66-.44,0-.74-.46-.9-1.38-.45-2.36-1.49-4.33-3.13-5.92-1.64-1.58-3.49-2.37-5.53-2.37s-3.6.64-4.78,1.92c-1.18,1.28-1.77,3.03-1.77,5.23,0,2.56.86,4.63,2.59,6.19.96.88,3.05,2.12,6.25,3.73,3.76,1.88,6.47,3.8,8.11,5.74,1.64,1.94,2.47,4.16,2.47,6.64Z"/>
  <path class="st0" d="M736.78,123.43c0,.52-.24.78-.72.78s-.82-.52-1.02-1.56c-.08-.72-.16-1.44-.24-2.17-.28-1.44-.74-2.66-1.38-3.66-.84-1.33-2.23-2.17-4.15-2.52-1.24-.24-2.25-.34-3-.3-1.88.05-3.03.09-3.43.12v36.31c0,1.44.38,2.35,1.14,2.71.4.21,1.52.32,3.37.36.48.04.72.21.72.51,0,.34-.32.51-.96.51-.32,0-.6-.02-.84-.06-2.41-.08-4.11-.12-5.11-.12-1.32,0-2.56.03-3.73.09-1.16.06-2.64.09-4.45.09-.92,0-1.38-.16-1.38-.48,0-.36.86-.56,2.58-.6,1.24,0,2.04-.26,2.4-.78.2-.32.3-1.14.3-2.47v-36.06c-3.97.04-6.43.24-7.4.6-2.52.92-4.01,3.39-4.45,7.39-.12,1.2-.4,1.81-.84,1.81-.48,0-.72-.42-.72-1.26,0-.44.02-.88.06-1.33l.12-1.38c.12-1.84.3-4.27.54-7.27h2.71l12.27.18c1.44.04,3.68.04,6.73,0l9.98-.18c.08,2.25.34,5.57.78,9.98,0,.12.02.27.06.45s.06.29.06.33Z"/>
</svg>